<?xml version="1.0" encoding="UTF-8" standalone="no"?>
<!-- Created with Inkscape (http://www.inkscape.org/) -->

<!-- This Source Code Form is subject to the terms of the Mozilla Public
   - License, v. 2.0. If a copy of the MPL was not distributed with this
   - file, You can obtain one at http://mozilla.org/MPL/2.0/. -->

<svg
   xmlns:dc="http://purl.org/dc/elements/1.1/"
   xmlns:cc="http://creativecommons.org/ns#"
   xmlns:rdf="http://www.w3.org/1999/02/22-rdf-syntax-ns#"
   xmlns:svg="http://www.w3.org/2000/svg"
   xmlns="http://www.w3.org/2000/svg"
   xmlns:xlink="http://www.w3.org/1999/xlink"
   xmlns:sodipodi="http://sodipodi.sourceforge.net/DTD/sodipodi-0.dtd"
   xmlns:inkscape="http://www.inkscape.org/namespaces/inkscape"
   width="64"
   height="64"
   viewBox="0 0 64 64"
   id="svg1"
   version="1.1"
   inkscape:version="0.92.3 (2405546, 2018-03-11)"
   sodipodi:docname="icon.svg">
  <defs
     id="defs4" />
  <sodipodi:namedview
     id="base"
     pagecolor="#ffffff"
     bordercolor="#666666"
     borderopacity="1.0"
     inkscape:pageopacity="0.0"
     inkscape:pageshadow="2"
     inkscape:zoom="0.35"
     inkscape:cx="375"
     inkscape:cy="520"
     inkscape:document-units="px"
     units="px"
     inkscape:current-layer="layer1"
     showgrid="true"
     gridtolerance="10"
     objecttolerance="10"
     guidetolerance="10"
     inkscape:snap-bbox="true"
     inkscape:bbox-paths="true"
     inkscape:bbox-nodes="true"
     inkscape:snap-bbox-midpoints="true"
     inkscape:object-paths="true"
     inkscape:snap-intersection-paths="true"
     inkscape:object-nodes="true"
     inkscape:snap-smooth-nodes="true"
     inkscape:snap-object-midpoints="true"
     inkscape:snap-center="true"
     inkscape:snap-text-baseline="true"
     inkscape:snap-page="true"
     width="64px"
     inkscape:snap-nodes="true"
     inkscape:snap-global="true">
    <inkscape:grid
       type="xygrid"
       id="grid855"
       spacingx="2"
       spacingy="2"
       empspacing="16"
       enabled="true" />
    <inkscape:grid
       type="xygrid"
       id="grid828"
       enabled="false" />
  </sodipodi:namedview>
  <metadata
     id="metadata7">
    <rdf:RDF>
      <cc:Work
         rdf:about="">
        <dc:format>image/svg+xml</dc:format>
        <dc:type
           rdf:resource="http://purl.org/dc/dcmitype/StillImage" />
        <dc:title></dc:title>
        <cc:license
           rdf:resource="https://www.mozilla.org/en-US/MPL/2.0/" />
      </cc:Work>
    </rdf:RDF>
  </metadata>
  <g
     inkscape:label="Layer 1"
     inkscape:groupmode="layer"
     id="layer1"
     transform="translate(0,-930)">
    <path
       style="color:#000000;font-style:normal;font-variant:normal;font-weight:normal;font-stretch:normal;font-size:medium;line-height:normal;font-family:sans-serif;font-variant-ligatures:normal;font-variant-position:normal;font-variant-caps:normal;font-variant-numeric:normal;font-variant-alternates:normal;font-feature-settings:normal;text-indent:0;text-align:start;text-decoration:none;text-decoration-line:none;text-decoration-style:solid;text-decoration-color:#000000;letter-spacing:normal;word-spacing:normal;text-transform:none;writing-mode:lr-tb;direction:ltr;text-orientation:mixed;dominant-baseline:auto;baseline-shift:baseline;text-anchor:start;white-space:normal;shape-padding:0;clip-rule:nonzero;display:inline;overflow:visible;visibility:visible;opacity:1;isolation:auto;mix-blend-mode:normal;color-interpolation:sRGB;color-interpolation-filters:linearRGB;solid-color:#000000;solid-opacity:1;vector-effect:none;fill:#000000;fill-opacity:1;fill-rule:nonzero;stroke:none;stroke-width:1;stroke-linecap:butt;stroke-linejoin:miter;stroke-miterlimit:4;stroke-dasharray:none;stroke-dashoffset:0;stroke-opacity:1;color-rendering:auto;image-rendering:auto;shape-rendering:auto;text-rendering:auto;enable-background:accumulate"
       d="m 32.000001,940 c -3.174719,0 -5.767622,2.47034 -5.978516,5.5918 0.240092,-3.5918 3.372871,-4.5918 5.978515,-4.5918 h 24 c 2.774443,0 5,2.22556 5,5 v 20 l 1,-4 v -16 c 0,-3.31254 -2.687467,-6 -6,-6 z"
       id="path830"
       inkscape:connector-curvature="0"
       sodipodi:nodetypes="scsssccsss" />
    <path
       style="fill:#000000;fill-opacity:1"
       d="m 14,952 a 6,6 0 0 0 -6,6 v 18 h -3 a 3,3 0 0 0 0,6 h 42 a 3,3 0 0 0 0,-6 h -3 v -18 a 6,6 0 0 0 -6,-6 z m 12.066406,2.00195 a 1.958336,1.958336 0 0 1 1.617188,0.95508 l 2.871094,5.81055 6.421874,0.93359 a 1.8870477,1.8870477 0 0 1 1.517579,1.27735 1.8723706,1.8723706 0 0 1 -0.47461,1.92382 l -4.654297,4.51563 1.09375,6.38867 a 1.8723706,1.8723706 0 0 1 -0.74414,1.83203 1.8870477,1.8870477 0 0 1 -1.103516,0.36133 1.861887,1.861887 0 0 1 -0.871094,-0.21094 l -5.746093,-3.01562 -5.736329,3.00781 a 1.8744674,1.8744674 0 0 1 -2.724609,-1.97461 l 1.095703,-6.38281 -4.648437,-4.52149 a 1.8723706,1.8723706 0 0 1 1.042969,-3.20117 l 6.421874,-0.93359 2.871094,-5.81055 a 1.958336,1.958336 0 0 1 1.75,-0.95508 z m -0.07227,6.01953 -2.056641,4.17579 -4.613281,0.66796 3.33789,3.25 -0.787109,4.58985 4.119141,-2.16602 4.130859,2.16602 -0.787109,-4.58985 3.330078,-3.25 -4.611328,-0.66796 z"
       id="path31"
       inkscape:connector-curvature="0" />
    <use
       x="0"
       y="0"
       xlink:href="#path830"
       id="use867"
       transform="translate(-6,4)"
       width="100%"
       height="100%" />
    <use
       height="100%"
       width="100%"
       transform="translate(-12,8)"
       id="use869"
       xlink:href="#path830"
       y="0"
       x="0" />
  </g>
</svg>
